<svg width="24" height="28" viewBox="0 0 24 28" fill="none" xmlns="http://www.w3.org/2000/svg">
<path d="M9.28408 23.6372C9.95063 23.4962 14.0122 23.4962 14.6788 23.6372C15.2486 23.7688 15.8648 24.0763 15.8648 24.7478C15.8316 25.387 15.4566 25.9537 14.9385 26.3136C14.2666 26.8373 13.4782 27.169 12.6539 27.2885C12.1981 27.3476 11.7502 27.3489 11.3102 27.2885C10.4847 27.169 9.6962 26.8373 9.02567 26.3122C8.50622 25.9537 8.1312 25.387 8.09807 24.7478C8.09807 24.0763 8.71426 23.7688 9.28408 23.6372ZM12.0601 0.666656C14.8337 0.666656 17.6668 1.98268 19.3498 4.16621C20.4417 5.57221 20.9426 6.97686 20.9426 9.16039V9.72843C20.9426 11.403 21.3852 12.39 22.3592 13.5274C23.0973 14.3654 23.3332 15.4411 23.3332 16.608C23.3332 17.7736 22.9502 18.8802 22.1829 19.7786C21.1785 20.8556 19.7619 21.5431 18.3162 21.6626C16.2211 21.8412 14.1247 21.9916 12.0005 21.9916C9.87496 21.9916 7.7799 21.9017 5.68484 21.6626C4.23778 21.5431 2.8212 20.8556 1.81806 19.7786C1.0508 18.8802 0.666504 17.7736 0.666504 16.608C0.666504 15.4411 0.903706 14.3654 1.64049 13.5274C2.64495 12.39 3.0584 11.403 3.0584 9.72843V9.16039C3.0584 6.91778 3.61761 5.45135 4.76916 4.01581C6.48126 1.92225 9.22564 0.666656 11.9409 0.666656H12.0601Z" fill="#637381"/>
</svg>
