<svg width="29" height="28" viewBox="0 0 29 28" fill="none" xmlns="http://www.w3.org/2000/svg">
<path d="M13.3237 0.666656C16.6338 0.666656 19.3334 3.31999 19.3334 6.58666V12.9733H11.1939C10.6105 12.9733 10.1493 13.4267 10.1493 14C10.1493 14.56 10.6105 15.0267 11.1939 15.0267H19.3334V21.4C19.3334 24.6667 16.6338 27.3333 13.2966 27.3333H6.69C3.36636 27.3333 0.666748 24.68 0.666748 21.4133V6.59999C0.666748 3.31999 3.37993 0.666656 6.70357 0.666656H13.3237ZM22.7203 9.40026C23.1203 8.98692 23.7737 8.98692 24.1737 9.38692L28.067 13.2669C28.267 13.4669 28.3737 13.7203 28.3737 14.0003C28.3737 14.2669 28.267 14.5336 28.067 14.7203L24.1737 18.6003C23.9737 18.8003 23.707 18.9069 23.4537 18.9069C23.187 18.9069 22.9203 18.8003 22.7203 18.6003C22.3203 18.2003 22.3203 17.5469 22.7203 17.1469L24.8537 15.0269H19.3337V12.9736H24.8537L22.7203 10.8536C22.3203 10.4536 22.3203 9.80026 22.7203 9.40026Z" fill="#FF4842"/>
</svg>
